<svg height="400pt" preserveAspectRatio="xMidYMid meet" viewBox="0 0 400 400" width="400pt" xmlns="http://www.w3.org/2000/svg"><g transform="matrix(.1 0 0 -.1 0 400)"><path d="m667 3279c-90-21-151-71-189-154l-23-50v-895c0-854 1-897 19-944 25-66 75-119 139-147l52-24 633-3 632-3v-124-125h-297c-172 0-314-4-335-10-73-21-71-123 3-149 43-15 1348-15 1401-1 73 21 71 123-3 149-21 7-138 11-330 11h-299v125 124l638 3 637 3 52 24c64 28 114 81 139 147 18 47 19 90 19 939s-1 892-19 939c-25 66-75 119-139 147l-52 24-1320 2c-750 0-1336-3-1358-8zm2715-167 33-32v-905-905l-33-32-32-33h-1345-1345l-32 33-33 32v904 904l25 27c14 15 34 31 45 36 11 4 620 7 1352 6l1333-2z"/><path d="m1226 2797c-11-8-22-37-30-78-7-43-16-65-26-67-9-1-37 14-63 34-44 34-49 36-77 24-42-17-140-125-140-154 0-13 16-44 35-69 49-64 42-77-50-92-67-11-75-25-75-130 0-57 5-98 13-108 7-10 37-22 74-28 77-14 83-30 37-95-19-26-34-56-34-67 0-10 30-50 67-88 78-81 97-85 161-34 24 18 50 31 57 29 8-3 17-29 21-62 10-83 33-102 126-102 119 0 131 9 144 109 8 64 25 70 77 26 65-56 91-47 190 63 20 23 37 51 37 63 0 11-15 40-34 65-46 60-40 80 27 88 91 12 97 21 97 135 0 115-6 125-88 136-75 10-83 30-37 96 19 28 35 57 35 64 0 33-127 165-160 165-7 0-34-16-61-36s-56-34-63-31c-8 3-18 33-25 69-6 37-18 68-28 76-23 17-183 16-207-1zm180-114 9-67 47-19 48-19 44 36c24 20 48 36 53 36s30-22 56-48l47-48-39-53-39-52 20-49c19-47 22-49 67-55 84-12 81-9 81-85s8-68-93-86c-32-5-40-12-57-51l-20-44 42-55 41-55-51-51-51-52-52 41-53 41-35-16c-55-25-58-28-64-88-3-31-10-61-15-66s-36-8-68-6l-59 3-10 65c-10 64-11 65-55 86-25 12-49 19-55 15-5-4-29-23-53-42l-44-34-49 52-50 53 41 53 40 54-20 46c-22 48-27 51-103 62l-48 6 3 72 3 72 61 9 61 8 20 49 21 48-39 52-38 52 31 39c50 64 68 67 122 23l45-37 46 17c48 19 49 21 60 108l6 47h68 69z"/><path d="m1235 2437c-91-52-127-173-79-268 22-43 92-97 135-104 65-11 114 3 163 46 87 77 95 205 17 293-50 57-164 74-236 33zm179-68c97-85 42-249-84-249-127 0-182 163-85 249 30 26 44 31 85 31s55-5 84-31z"/><path d="m2250 2680c-73-63-86-66-120-26-7 9-20 16-29 16-18 0-71-45-71-61 0-17 128-129 148-129 14 0 192 153 212 181 13 20 12 24-18 50-18 16-37 29-42 29s-41-27-80-60zm99 7c8-11-9-31-79-91-62-52-95-74-104-69-17 10-96 81-96 87 0 2 8 7 17 10 10 4 30-4 54-23l37-30 73 64c41 36 77 65 80 65 4 0 11-6 18-13z"/><path d="m2522 2598 3-143h370 370l3 143 3 142h-376-376zm707 60c-1-29-4-43-6-30-2 12-16 30-30 39-25 17-26 16-50-12-20-23-24-36-20-67 6-48 22-68 54-68 18 0 28 9 38 33l14 32 1-52v-53h-335-335v115 115h335 335zm-39-29c14-25 3-79-15-79-25 0-35 66-13 88 16 16 15 16 28-9z"/><path d="m2580 2595v-55h215 215v55 55h-215-215zm400 5v-30h-185-185v30 30h185 185z"/><path d="m2520 2245v-145h375 375v145 145h-375-375zm710 63-1-53-14 33c-10 23-20 32-38 32-34 0-52-26-52-75s18-75 52-75c18 0 28 9 38 33l14 32 1-52v-53h-335-335v115 115h335 335zm-36-42c3-14 1-37-5-53-10-27-11-27-25-9-17 23-18 50-3 77 12 24 25 18 33-15z"/><path d="m2580 2245v-55h215 215v55 55h-215-215zm400-5v-30h-185-185v30 30h185 185z"/><path d="m2240 2320c-73-63-86-66-120-26-7 9-20 16-29 16-18 0-71-45-71-61 0-17 128-129 148-129 14 0 192 153 212 181 13 20 12 24-18 50-18 16-37 29-42 29s-41-27-80-60zm99 7c8-11-9-31-79-91-62-52-95-74-104-69-17 10-96 81-96 87 0 2 8 7 17 10 10 4 30-4 54-23l37-30 73 64c41 36 77 65 80 65 4 0 11-6 18-13z"/><path d="m2524 2027c-2-7-3-74-2-148l3-134h370 370v145 145l-368 3c-296 2-369 0-373-11zm706-69-1-53-14 33c-10 23-20 32-38 32-32 0-48-20-54-68-4-31 0-44 20-67 24-28 25-29 50-12 14 9 28 27 30 39 2 13 5-3 6-34l1-58h-335-335v120 120h335 335zm-35-47c3-17 1-39-5-51-22-42-53 15-34 64 10 26 32 18 39-13z"/><path d="m2580 1890v-60h215 215v60 60h-215-215zm400 0v-30h-185-185v30 30h185 185z"/><path d="m2250 1960c-73-63-86-66-120-26-7 9-20 16-29 16-18 0-71-45-71-61 0-17 128-129 148-129 14 0 192 153 212 181 13 20 12 24-18 50-18 16-37 29-42 29s-41-27-80-60zm99 7c8-11-9-31-79-91-62-52-95-74-104-69-17 10-96 81-96 87 0 2 8 7 17 10 10 4 30-4 54-23l37-30 73 64c41 36 77 65 80 65 4 0 11-6 18-13z"/></g></svg>